# xmcd
#
# Track frame offsets: 
#        150
#        31127
#        56080
#        75807
#        99645
#        117532
#        149020
#        173597
#        208427
#        246030
#
# Disc length: 3547 seconds
#
# Revision: 0
# Processed by: cddbd v1.5.2PL0 Copyright (c) Steve Scherf et al.
# Submitted via: ExactAudioCopyFreeDBPlugin 1.0
#
DISCID=890dd90a
DTITLE=Michael de Jong - Something for the Pain
DYEAR=2014
DGENRE=Blues
TTITLE0=Train Don't Run There Anymore
TTITLE1=I Stand Accused
TTITLE2=Count My Blessings
TTITLE3=Isolation
TTITLE4=Mystery to Me
TTITLE5=Lone Wolf Howling
TTITLE6=Something for the Pain
TTITLE7=Dazlious
TTITLE8=The Man from Galilee
TTITLE9=One Last Hurrah
EXTD=
EXTT0=
EXTT1=
EXTT2=
EXTT3=
EXTT4=
EXTT5=
EXTT6=
EXTT7=
EXTT8=
EXTT9=
PLAYORDER=
